<?xml version="1.0" encoding="UTF-8"?>
<svg id="Layer_1" xmlns="http://www.w3.org/2000/svg" version="1.1" viewBox="0 0 376.09 355.76">
  <!-- Generator: Adobe Illustrator 29.8.2, SVG Export Plug-In . SVG Version: 2.1.1 Build 3)  -->
  <defs>
    <style>
      .st0 {
        fill: #3953a4;
      }

      .st1 {
        fill: #e1b193;
      }

      .st2 {
        fill: none;
        stroke: #000;
        stroke-miterlimit: 10;
        stroke-width: .25px;
      }

      .st3 {
        fill: #ff9700;
      }

      .st4 {
        opacity: .32;
      }

      .st5 {
        fill: #4eba77;
      }

      .st6 {
        fill: #f2ad3d;
      }

      .st7 {
        fill: #4c4b49;
      }

      .st8 {
        fill: #ed0f93;
      }

      .st9 {
        fill: #4b4c94;
      }

      .st10 {
        fill: #631a49;
      }
    </style>
  </defs>
  <g id="Layer_21">
    <g>
      <g>
        <path class="st8" d="M216.1,237.94c-.5-3.26-.58-18.23-10.23-23.58,2.48-4.81,7.76-5.42,6.93-11.22,7.24,3.53,28.79,14.27,50.1,27.76,26.07,16.46,51.83,37.02,50.84,53.46,0,0,1.03,21.2-17.18,28.46-18.23,7.26-86.03-8.23-86.03-8.23,2.78.29,4.08-22.28,4.68-41.27.43-13.72.5-25.56.5-25.56,0,0,.14.06.39.19h0Z"/>
        <path class="st3" d="M281.98,168.7s-2.33,1.4-10.17,1.81c0,0,4.21,9.34,2.97,13.04,0,0-3.3-6.99-6.89-10.17-2.43-2.17-7.12,7.9-7.34,8.09-.19.21,1.09-8.81,1.09-8.81-1.69-4-6.64-7.16-7.26-7.53.54.25,4.87,2.25,9.59,1.77,5.05-.52,5.78-8.77,5.78-8.77,1.49,5.65-1.26,7.16,1.01,8.6s4.17,1.46,11.22,1.98h0Z"/>
        <path class="st6" d="M274.41,186.62s-1.34.8-5.82,1.03c0,0,2.41,5.34,1.69,7.45,0,0-1.88-3.98-3.94-5.8-1.38-1.24-4.08,4.52-4.19,4.64s.62-5.05.62-5.05c-.95-2.27-3.71-4.04-4.12-4.31.39.19,2.81,1.28,5.45,1.01,2.89-.29,3.3-5.01,3.3-5.01.85,3.22-.72,4.08.58,4.91,1.3.82,2.39.83,6.43,1.13h0Z"/>
        <path class="st5" d="M212.8,203.14c-1.65-.8-2.56-1.22-2.56-1.22-2.58-2.43-.89-9.1-.89-9.1,6.83-5.12,12.75-13.67,13.43-27.95.06-2.7.29-6.68.35-10.7.14-8-.33-16.09-3.71-14.17-5.11,2.89-9.55,4.27-13.26,4.79-7.16.97-11.49-1.3-12.13-2.12,11.84-.21,23.88-4.62,33.97-16.83l.14.12s6.41,8.52,5.73,21.84c-.68,13.34.91,22.98,3.38,31.25,1.92,6.44,24.05,14.97,26.17,51.05l-.5.8c-21.31-13.49-42.86-24.23-50.1-27.76h0Z"/>
        <path class="st3" d="M256.98,157.78s-.82.49-3.55.64c0,0,1.48,3.24,1.03,4.52,0,0-1.15-2.43-2.39-3.53-.83-.76-2.48,2.76-2.54,2.81-.08.08.37-3.07.37-3.07-.58-1.38-2.31-2.48-2.52-2.6.21.1,1.71.76,3.34.6,1.75-.17,2-3.05,2-3.05.52,1.96-.43,2.48.35,2.99.8.5,1.46.5,3.92.68h0Z"/>
        <path class="st0" d="M224.1,100.24c2.37,6.87,4.43,12.85,5.32,15.49-11.49,13.01-23.57,18.17-34.75,19.14v-.06c.66-.95,1.51-2.1,2.35-3.14.12-.14.23-.29.35-.43.87-1.13.33-2.74-1.01-3.18-2.02-.66-4.12-2.29-3.4-6.13.95-5.14,5.03-5.18,8.06-3.92.47.21.93-.33.62-.74-2.02-2.83-4.12-7.36,1.2-9.1,3.98-1.32,6.35-1.26,7.73-.87.74.21,1.42-.39,1.38-1.13-.17-3.11,1.18-7.96,12.15-5.92h0Z"/>
        <path class="st1" d="M219.42,139.99c3.38-1.92,3.84,6.17,3.71,14.17l-3.94-.04c-4.15-3.55-8.58-4.41-12.46-4.1l-.56-5.24c3.71-.52,8.15-1.9,13.26-4.79h0Z"/>
        <path class="st1" d="M206.73,150.03c3.88-.31,8.31.54,12.46,4.1l3.94.04c-.06,4.02-.29,8-.35,10.7-.68,14.29-6.6,22.83-13.43,27.95-10.13,7.59-22.3,7.59-22.3,7.59-6.89.99-13.82-1.15-19.64-5.55-10.09-7.59-16.95-21.95-14.93-38.71.33-2.78-3.47-12.4,2.04-16.4,5.51-4.02,7.12-1.24,21.95,4.41,10.02,3.82,12.37-.7,12.71-1.61,1.61.14,3.22.17,4.85.14.64.82,4.97,3.09,12.13,2.12l.56,5.24ZM206.98,161.75c7.24-.52,9.26-5.24,9.26-5.24-10.48-7.98-18.03.14-18.54.58,0,0,4.87,4.99,9.28,4.66ZM165.65,161.75c7.26-.52,9.28-5.24,9.28-5.24-12.29-7.67-18.05.14-18.54.58,0,0,4.85,4.99,9.26,4.66Z"/>
        <path class="st8" d="M220.68,90.18c1.15,3.38,2.31,6.81,3.42,10.06-10.97-2.04-12.33,2.81-12.15,5.92.04.74-.64,1.34-1.38,1.13-1.38-.39-3.75-.45-7.73.87-5.32,1.75-3.22,6.27-1.2,9.1.31.41-.16.95-.62.74-3.03-1.26-7.1-1.22-8.06,3.92-.72,3.84,1.38,5.47,3.4,6.13,1.34.45,1.88,2.06,1.01,3.18-.12.14-.23.29-.35.43-.83,1.05-1.69,2.19-2.35,3.14v.06c-6.89.62-13.45-.37-19.29-2.14l.04-.12c4.13-8.06-2.39-8.75-5.86-8.77-.93,0-1.53-.91-1.22-1.79,3.47-9.32-6.52-14.19-11.2-15.92-.93-.33-1.22-1.55-.52-2.25,6.21-6.08-.12-9.88-.12-9.88,0,0,.14-5.67,3.42-5.94,0,0-.21,5.73,7.9,8.08,7.88,2.27,11.34-2.35,12.75-5.59.6-1.38,2.12-2.08,3.55-1.63,5.84,1.77,13.41-.8,13.41-6.35,0-4.31-3.16-5.34-5.28-5.57-1.07-.1-1.88-1.01-1.98-2.08-.95-10.99-6.99-8.11-10.07-5.84-.64.47-1.51-.04-1.44-.82,1.11-10.25-9.3-6.64-9.3-6.64l-.1-.04c.99-2.35,1.98-4.85,2.93-7.42,2.33,3.11,15.34,4.66,18.83-.74,2.52-3.84-6.56-5.9-8.29-7.47-.7-.64-.8-1.69-.29-2.48,7.43-11.45-3.01-14.75-4.31-15.12,1.03-10.25,2.87-22.21,5.98-19.31,3.55,3.28,24.23,44.67,30.9,64.7.14.41.27.83.43,1.28l-.39.14s-17.97-2.7-10.06,9.49c.5.8.41,1.86-.29,2.5-1.73,1.57-4.23,4.78-1.73,8.64,3.57,5.47,15.59-2.41,17.59-5.61h.02Z"/>
        <path class="st0" d="M220.68,90.18h0c-2,3.2-14.02,11.08-17.59,5.61-2.5-3.86,0-7.07,1.73-8.64.7-.64.8-1.71.29-2.5-7.92-12.19,10.06-9.49,10.06-9.49l.39-.14c1.38,4.08,3.22,9.53,5.14,15.16h-.02Z"/>
        <path class="st1" d="M205.87,214.36c9.65,5.36,9.73,20.32,10.23,23.58-.25-.14-.39-.19-.39-.19,0,0-.08,11.84-.5,25.56h-.27c-2.02.41-3.75.35-5.24-.08-6.97-1.9-8.93-11.53-12.62-18.36-1.59-2.97-3.51-5.42-6.31-6.46-10.6-4.02-7.67-9.67-5.47-8.95,2.17.74,15.22,4.06,16.87.95,1.63-3.11-17.43-11.72-18.15-13.37-.74-1.65,3.82-3.11,8.21-4.02,5.94-1.24,10.35-.5,13.65,1.34h0Z"/>
        <path class="st10" d="M214.94,263.32h.27c-.6,18.98-1.9,41.56-4.68,41.27-2.37-.23-3.03-6.46-2.93-14.07.1-10.66,1.69-24.01,2.1-27.27,1.49.43,3.22.49,5.24.08h0Z"/>
        <path class="st1" d="M212.8,203.14c.83,5.8-4.45,6.41-6.93,11.22-3.3-1.84-7.71-2.58-13.65-1.34-4.39.91-8.95,2.37-8.21,4.02.72,1.65,19.78,10.27,18.15,13.37-1.65,3.11-14.69-.21-16.87-.95-2.19-.72-5.12,4.93,5.47,8.95,2.8,1.05,4.72,3.49,6.31,6.46-2.43,12.38-8.08,22.17-8.08,22.17,0,0-2.23-14.17-9.55-24.32-3.53-4.89-7.47-12.6-11.78-19.78l1.88-8.6-2.12-2.66s-.64.43-1.65,1.15l-.04-.04c.12-2.33.49-5.07,1.15-8.23l-.06-.16c.37-.14.54-.19.54-.19.39-.56.66-1.22.8-1.9.74-3.26-.91-7.28-.91-7.28l.14-.17c5.82,4.41,12.75,6.54,19.64,5.55,0,0,12.17,0,22.3-7.59,0,0-1.69,6.68.89,9.1,0,0,.91.43,2.56,1.22h0Z"/>
        <path class="st7" d="M210.26,157.39s-1.94-.29-3.13.02c-.8.21.66,2.62.68,2.7-.06,0-1.71-1.48-1.71-1.48-1.16-.21-2.64.49-2.64.49,0,0,1.15-.66,1.75-1.81.6-1.13-1.05-2.45-1.05-2.45,1.42.47,1.34,1.26,1.96.99.64-.27.91-.68,2.02-2.1,0,0-.04.7-1.07,2.41,0,0,2.58.43,3.18,1.22h0Z"/>
        <path class="st8" d="M209.7,263.24c-.41,3.26-2,16.62-2.1,27.27h-.19c-14.29.06-30.24.21-46.22.27-2.29-13.3-6.77-29.99-6.77-29.99v-.21c8.64-.35,23.64-1.88,24.32-8.42.74-7.34-6.1-3.2-11.74-26.13l.68-3.09c4.31,7.18,8.25,14.89,11.78,19.78,7.32,10.15,9.55,24.32,9.55,24.32,0,0,5.65-9.78,8.08-22.17,3.69,6.83,5.65,16.46,12.62,18.36h0Z"/>
        <path class="st0" d="M192.25,77c2.12.23,5.28,1.26,5.28,5.57,0,5.55-7.57,8.11-13.41,6.35-1.44-.45-2.95.25-3.55,1.63-1.42,3.24-4.87,7.86-12.75,5.59-8.11-2.35-7.9-8.08-7.9-8.08,3.3-.25-.25-7.49,2.25-11.45,1.11-1.77,4.12-7.65,7.2-15.02l.1.04s10.4-3.61,9.3,6.64c-.08.78.8,1.28,1.44.82,3.09-2.27,9.12-5.14,10.07,5.84.1,1.07.91,1.98,1.98,2.08Z"/>
        <path class="st0" d="M182.83,45.97c1.73,1.57,10.81,3.63,8.29,7.47-3.49,5.4-16.5,3.84-18.83.74,2.68-7.3,4.97-15.14,5.53-21.53.12-1.36.25-2.81.41-4.29,1.3.37,11.74,3.67,4.31,15.12-.5.8-.41,1.84.29,2.48h0Z"/>
        <path class="st5" d="M189.18,142.54c-.35.91-2.7,5.44-12.71,1.61-14.83-5.65-16.44-8.42-21.95-4.41-5.51,4-1.71,13.63-2.04,16.4-2.02,16.75,4.83,31.12,14.93,38.71l-.14.17s1.65,4.02.91,7.28c-.14.68-.41,1.34-.8,1.9,0,0-.17.06-.54.19-2.81,1.01-16.54,6-32.92,13.9-10.46-16.93-1.24-18.3,2.43-24.48,1.28-2.15,1.88-4.89.72-9.1-.39-1.36-.6-2.64-.7-3.86-.85-10.44,7.24-16.46,7.05-26.98-.02-1.34-1.46-3.13-1.96-6.35-.91-5.88,2.52-20.4,3.14-22.96,6.97,5.09,25.1,16.6,44.59,17.97h0Z"/>
        <path class="st1" d="M167.67,222.94l-.68,3.09c5.65,22.92,12.48,18.79,11.74,26.13-.68,6.54-15.68,8.08-24.32,8.42-3.51.12-5.96.06-5.96.06l-.85.16c-.95-5.32-1.55-9.14-1.49-9.88.21-3.01,8.15-3.69,8.15-3.69l9.34-.23s-5.88-10.52-9.12-17.63c-2.58-5.67,7.3-13.61,11.32-16.54,1.01-.72,1.65-1.15,1.65-1.15l2.12,2.66-1.88,8.6h0Z"/>
        <path class="st0" d="M169.55,123.84c3.47.02,10,.72,5.86,8.77l-.04.12c-15.1-4.5-25.62-14.02-25.62-14.02-1.71-1.4-3.13-1.53-4.25-1.03l-.14-.31c.06-5.53.6-15.06,11.12-23.37,0,0,6.33,3.8.12,9.88-.7.7-.41,1.92.52,2.25,4.68,1.73,14.68,6.6,11.2,15.92-.31.87.29,1.79,1.22,1.79Z"/>
        <path class="st7" d="M168.64,157.37s-1.75-.25-2.8.02c-.72.17.6,2.33.6,2.41-.04,0-1.51-1.32-1.51-1.32-.93-.17-2.08.31-2.31.41.21-.14,1.03-.68,1.51-1.57.54-1.03-.93-2.19-.93-2.19,1.26.43,1.18,1.13,1.75.89.56-.25.8-.6,1.79-1.86,0,0-.02.6-.93,2.14,0,0,2.29.39,2.83,1.09h0Z"/>
        <path class="st8" d="M156.37,306.97h.02c-25.14-3.07-98.67,5.16-87.41-33.74,6.56-22.73,39.06-42.47,64.93-54.93,16.38-7.9,30.11-12.89,32.92-13.9l.06.16c-.66,3.16-1.03,5.9-1.15,8.23l.04.04c-4.02,2.93-13.9,10.87-11.32,16.54,3.24,7.1,9.12,17.63,9.12,17.63l-9.34.23s-7.94.68-8.15,3.69c-.06.74.54,4.56,1.49,9.88,2.8,15.9,8.6,45.27,8.77,46.18h0Z"/>
        <path class="st10" d="M161.19,290.78c.87,5.05,1.42,9.61,1.3,12.6-.17,4.29-4.78,3.92-6.11,3.59-.17-.91-5.98-30.28-8.77-46.18l.85-.16s2.45.06,5.96-.06v.21s4.48,16.69,6.77,29.99h0Z"/>
        <path class="st3" d="M133.47,181.15s-1.05,1.44-5.69,3.73c0,0,4.97,4.56,5.18,7.14,0,0-3.82-3.38-6.83-4.39-2.02-.68-2.27,6.64-2.33,6.83-.12,0-1.63-5.63-1.63-5.63-2.06-1.98-5.82-2.62-6.35-2.7.47.02,3.55.08,6.25-1.42,2.93-1.63,1.22-6.81,1.22-6.81,2.39,3.03,1.11,4.66,2.85,4.95s2.91-.21,7.32-1.71h0Z"/>
        <path class="st3" d="M128.38,164.18c-.16.19-1.59,1.86-6.72,4.39,0,0,5.86,5.38,6.11,8.41,0,0-4.48-3.98-8.04-5.16-2.41-.8-2.68,7.84-2.78,8.06-.14,0-1.92-6.64-1.92-6.64-2.6-2.5-7.55-3.18-7.55-3.18,0,0,4,.25,7.45-1.67,3.46-1.9,1.44-8.04,1.44-8.04,2.81,3.57,1.3,5.49,3.36,5.84,2.08.33,3.44-.25,8.64-2h0Z"/>
        <path class="st3" d="M118.85,206.69c-.29-.08-2.76-.91-7.86-5.49,0,0-3.38,8.91-6.62,10.54,0,0,2.41-6.76,2.15-11.24-.17-3.01-9.9.52-10.17.52,0-.19,6.52-5.11,6.52-5.11,1.51-3.75.35-9.08.19-9.74.17.5,1.71,4.7,5.14,7.49,3.47,2.85,9.01-1.51,9.53-1.94-2.72,4.66-5.49,3.84-4.95,6.29s1.81,3.71,6.06,8.68h0Z"/>
      </g>
      <g>
        <path class="st2" d="M166.89,204.56c-.66,3.16-1.03,5.9-1.15,8.23"/>
        <path class="st2" d="M197.02,131.67c.12-.14.23-.29.35-.43.87-1.13.33-2.74-1.01-3.18-2.02-.66-4.12-2.29-3.4-6.13.95-5.14,5.03-5.18,8.06-3.92.47.21.93-.33.62-.74-2.02-2.83-4.12-7.36,1.2-9.1,3.98-1.32,6.35-1.26,7.73-.87.74.21,1.42-.39,1.38-1.13-.17-3.11,1.18-7.96,12.15-5.92"/>
        <path class="st2" d="M194.67,134.81c.66-.95,1.51-2.1,2.35-3.14"/>
        <path class="st2" d="M156.49,94.01s6.33,3.8.12,9.88c-.7.7-.41,1.92.52,2.25,4.68,1.73,14.68,6.6,11.2,15.92-.31.87.29,1.79,1.22,1.79,3.47.02,10,.72,5.86,8.77"/>
        <path class="st2" d="M169.46,61.63s10.4-3.61,9.3,6.64c-.08.78.8,1.28,1.44.82,3.09-2.27,9.12-5.14,10.07,5.84.1,1.07.91,1.98,1.98,2.08,2.12.23,5.28,1.26,5.28,5.57,0,5.55-7.57,8.11-13.41,6.35-1.44-.45-2.95.25-3.55,1.63-1.42,3.24-4.87,7.86-12.75,5.59-8.11-2.35-7.9-8.08-7.9-8.08"/>
        <path class="st2" d="M215.15,75.16s-17.97-2.7-10.06,9.49c.5.8.41,1.86-.29,2.5-1.73,1.57-4.23,4.78-1.73,8.64,3.57,5.47,15.59-2.41,17.59-5.61"/>
        <path class="st2" d="M178.09,28.32s.04.02.14.04c1.3.37,11.74,3.67,4.31,15.12-.5.8-.41,1.84.29,2.48,1.73,1.57,10.81,3.63,8.29,7.47-3.49,5.4-16.5,3.84-18.83.74-.04-.06-.08-.1-.12-.16"/>
        <path class="st2" d="M156.39,157.1c.49-.45,6.25-8.25,18.54-.58,0,0-2.02,4.72-9.28,5.24-4.41.33-9.26-4.66-9.26-4.66Z"/>
        <path class="st2" d="M197.7,157.1c.5-.45,8.06-8.56,18.54-.58,0,0-2.02,4.72-9.26,5.24-4.41.33-9.28-4.66-9.28-4.66Z"/>
        <path class="st2" d="M154.86,153.16s12.68-7.47,21.12.97"/>
        <path class="st2" d="M195.43,154.13s4.93-3.59,11.3-4.1c3.88-.31,8.31.54,12.46,4.1"/>
        <path class="st2" d="M172.97,181.63c1.48,3.77,18.42,10.7,30.63-1.34"/>
        <path class="st2" d="M167.38,204.21s-.17.06-.54.19c-2.81,1.01-16.54,6-32.92,13.9-25.88,12.46-58.37,32.2-64.93,54.93-11.26,38.9,62.27,30.67,87.41,33.76h-.02c-.17-.93-5.98-30.3-8.77-46.2-.95-5.32-1.55-9.14-1.49-9.88.21-3.01,8.15-3.69,8.15-3.69l9.34-.23s-5.88-10.52-9.12-17.63c-2.58-5.67,7.3-13.61,11.32-16.54,1.01-.72,1.65-1.15,1.65-1.15l2.12,2.66-1.88,8.6-.68,3.09c5.65,22.92,12.48,18.79,11.74,26.13-.68,6.54-15.68,8.08-24.32,8.42-3.51.12-5.96.06-5.96.06"/>
        <path class="st2" d="M168.18,202.31c-.14.68-.41,1.34-.8,1.9"/>
        <path class="st2" d="M167.26,195.03s1.65,4.02.91,7.28"/>
        <path class="st2" d="M216.24,238.49c-.06-.1-.1-.29-.14-.54-.5-3.26-.58-18.23-10.23-23.58-3.3-1.84-7.71-2.58-13.65-1.34-4.39.91-8.95,2.37-8.21,4.02.72,1.65,19.78,10.27,18.15,13.37-1.65,3.11-14.69-.21-16.87-.95-2.19-.72-5.12,4.93,5.47,8.95,2.8,1.05,4.72,3.49,6.31,6.46,3.69,6.83,5.65,16.46,12.62,18.36,1.49.43,3.22.49,5.24.08"/>
        <path class="st2" d="M205.64,214.83c.08-.16.16-.33.23-.47,2.48-4.81,7.76-5.42,6.93-11.22-.02-.14-.04-.27-.06-.43"/>
        <path class="st2" d="M197.08,244.84v.04c-2.43,12.38-8.08,22.17-8.08,22.17,0,0-2.23-14.17-9.55-24.32-3.53-4.89-7.47-12.6-11.78-19.78-.04-.06-.08-.14-.12-.19"/>
        <path class="st2" d="M179.8,166.08s-6.81,7.94-.1,7.94"/>
        <path class="st2" d="M180.39,172.99s2.52-2.12,4.31-.12c1.26,1.42,2.19,2.1,3.24,2.1.64-.02,2.02-.52,3.3-1.94,1.79-2,4.52-.04,4.52-.04"/>
        <path class="st2" d="M195.51,165.07s6.44,8.66.97,8.95"/>
        <path class="st2" d="M209.79,262.48s-.04.27-.1.76c-.41,3.26-2,16.62-2.1,27.27-.1,7.61.56,13.84,2.93,14.07,2.78.29,4.08-22.28,4.68-41.27.43-13.72.5-25.56.5-25.56,0,0,.14.06.39.19,4.54,2.23,47.73,23.51,62.12,31.64"/>
        <path class="st2" d="M154.41,260.79s4.48,16.69,6.77,29.99c.87,5.05,1.42,9.61,1.3,12.6-.17,4.29-4.78,3.92-6.11,3.59-.21-.06-.33-.1-.37-.14"/>
        <path class="st2" d="M167.19,181.86c5.47-1.42,5.59-5.71,5.59-5.71"/>
        <path class="st2" d="M208.82,180.84c-5.49-1.44-5.61-5.73-5.61-5.73"/>
        <path class="st2" d="M150.67,247.36s-43.05,3.61-50.72,7.22"/>
        <path class="st2" d="M161.19,290.78c15.98-.06,31.93-.21,46.22-.27"/>
      </g>
    </g>
  </g>
  <g id="Layer_22" class="st4">
    <path class="st9" d="M242.1,288.21c0,26.02-25.85,35.81-63.95,35.91-40.17.1-46.9-25.48-40.33-45.55,4.36-13.26,23.42-22.28,35.89-26.6,11.15-3.84,68.4-4.54,68.4,36.24h0Z"/>
  </g>
</svg>